<?xml version="1.0" standalone="no"?>
<!DOCTYPE svg PUBLIC "-//W3C//DTD SVG 20010904//EN"
 "http://www.w3.org/TR/2001/REC-SVG-20010904/DTD/svg10.dtd">
<svg version="1.0" xmlns="http://www.w3.org/2000/svg"
 width="512.000000pt" height="512.000000pt" viewBox="0 0 512.000000 512.000000"
 preserveAspectRatio="xMidYMid meet">
<metadata>
Created by potrace 1.14, written by Peter Selinger 2001-2017
</metadata>
<g transform="translate(0.000000,512.000000) scale(0.100000,-0.100000)"
fill="#000000" stroke="none">
<path d="M1938 4141 c-316 -69 -476 -187 -545 -400 -8 -25 -17 -100 -20 -166
l-6 -121 -81 -13 c-142 -22 -270 -96 -359 -210 -198 -252 -221 -644 -55 -925
23 -39 83 -112 134 -165 81 -82 91 -97 80 -111 -31 -35 -66 -123 -83 -206 -14
-75 -15 -101 -5 -191 12 -111 53 -247 97 -325 58 -103 179 -209 300 -263 92
-41 205 -64 377 -77 186 -14 309 -3 518 43 76 18 179 33 237 36 91 5 118 2
265 -31 256 -56 436 -69 633 -45 450 55 701 340 683 774 -6 120 -26 188 -77
260 l-28 39 81 81 c185 181 256 348 256 606 0 154 -20 245 -84 374 -73 149
-199 268 -328 311 -27 9 -81 21 -119 28 l-70 12 -4 99 c-10 191 -56 306 -162
406 -82 76 -173 120 -331 160 -241 61 -473 25 -656 -100 -24 -17 -47 -27 -51
-22 -10 17 -182 111 -242 132 -85 30 -242 35 -355 10z m337 -199 c35 -17 97
-52 137 -78 102 -66 150 -70 233 -18 112 69 140 83 215 103 150 42 330 20 497
-60 153 -73 195 -157 194 -394 0 -77 2 -155 5 -172 7 -37 -1 -34 174 -53 132
-14 204 -45 277 -120 102 -104 153 -244 153 -420 0 -236 -76 -377 -311 -576
-56 -47 -89 -83 -89 -95 0 -11 27 -48 59 -83 33 -35 70 -84 82 -107 47 -92 32
-300 -31 -437 -81 -175 -278 -275 -570 -289 -151 -7 -279 7 -455 49 -96 22
-163 32 -255 35 -117 5 -138 2 -325 -36 -245 -50 -323 -56 -492 -42 -148 13
-257 38 -331 75 -63 32 -156 116 -189 173 -58 100 -93 280 -74 389 16 88 32
118 102 186 88 85 81 108 -61 219 -147 113 -234 248 -266 409 -53 269 73 565
273 640 30 11 111 27 180 34 69 8 129 18 133 23 5 4 10 89 13 188 4 206 14
246 78 319 65 74 161 119 334 156 126 28 224 22 310 -18z"/>
</g>
</svg>
